<?xml version="1.0" encoding="UTF-8" standalone="no"?>
<svg
   version="1.1"
   width="203.71558"
   height="396.45905"
   id="svg12"
   sodipodi:docname="scroll_blue.svg"
   inkscape:version="1.4.3 (0d15f75, 2025-12-25)"
   xmlns:inkscape="http://www.inkscape.org/namespaces/inkscape"
   xmlns:sodipodi="http://sodipodi.sourceforge.net/DTD/sodipodi-0.dtd"
   xmlns="http://www.w3.org/2000/svg"
   xmlns:svg="http://www.w3.org/2000/svg">
  <defs
     id="defs12" />
  <sodipodi:namedview
     id="namedview12"
     pagecolor="#ffffff"
     bordercolor="#000000"
     borderopacity="0.25"
     inkscape:showpageshadow="2"
     inkscape:pageopacity="0.0"
     inkscape:pagecheckerboard="0"
     inkscape:deskcolor="#d1d1d1"
     inkscape:zoom="1.4142136"
     inkscape:cx="0"
     inkscape:cy="277.5394"
     inkscape:window-width="1920"
     inkscape:window-height="1111"
     inkscape:window-x="-9"
     inkscape:window-y="-9"
     inkscape:window-maximized="1"
     inkscape:current-layer="svg12" />
  <path
     d="M 199.96751,363.93486 C 199.72262,256.10419 199.53126,148.27303 199.35227,40.442106 h -186 V 358.44212 c 52.7542,5.97173 54.17308,5.57296 186.61524,5.49274 z"
     fill="#f9ecd7"
     id="path1"
     sodipodi:nodetypes="ccccc" />
  <path
     d="m 199.96751,363.93486 -0.0287,-3.49094 C 199.78435,253.77689 199.51108,147.10934 199.35223,40.442106 h -186 V 358.44212 l -4,2 c -2.63927,2.83477 -3.47044,5.18717 -4,9 -1.83716,0.29248 -3.48351,0.65793 -4.80523,2.01498 -0.42253,3.70615 -0.49425,7.27112 0.015,10.97004 2.31248,1.6875 2.10273,1.70248 4.79023,3.01498 0.89655,1.9928 1.48657,3.94784 2.03125,6.0625 1.42646,2.85292 3.11217,3.55521 5.96875,4.9375 3.26051,-0.0869 165.86472,0.056 175.57325,0.006 6.11887,-18.67005 11.43981,-17.10734 11.04199,-32.51336 z m -7.61524,-6.49274 h -173 V 75.442106 h 173 z"
     fill="#fd4141"
     id="path2"
     sodipodi:nodetypes="ccccccccccccccccccc"
     style="fill:#34529f;fill-opacity:1" />
  <path
     d="m 203.66477,377.50462 0.0508,-2.65235 c -0.43705,-2.89958 -0.93406,-3.75696 -3.02427,-5.70679 -0.84575,-2.25535 -1.78089,-4.21988 -2.3976,-6.54711 -1.22373,-2.8029 -2.29381,-3.61508 -4.94141,-5.15625 -3.20961,-0.36914 -3.20961,-0.36914 -7.08673,-0.36077 -55.63752,0.11703 -111.27572,0.19217 -166.91327,0.36077 v 1 l 167.35605,-0.10179 -5.35605,8.10179 c -2.84018,8.0522 -1.35404,17.3688 2,25 l 0.89453,2.1875 c 1.10547,1.8125 1.10547,1.8125 4.41797,2.8125 3.6875,0 3.6875,0 6.375,-1.4375 2.49656,-2.76646 3.91809,-5.37511 5.41797,-8.75781 3.19693,-6.44971 3.19693,-6.44971 3.20703,-8.74219 z"
     fill="#d73838"
     id="path3"
     sodipodi:nodetypes="cccccccccccccccc"
     style="fill:#253a71;fill-opacity:1" />
  <path
     d="m 196.35227,384.44212 -2.4375,-0.375 -2.5625,-0.625 c -1.17673,-2.35347 -1.16624,-3.88061 -1.1875,-6.5 l -0.043,-2.40625 c 0.0338,-2.31408 0.0338,-2.31408 2.23047,-4.09375 2.06874,-0.64252 2.06874,-0.64252 4,-1 -0.50604,-2.16874 -1.1197,-3.22059 -2.11986,-5.22092 -1.6319,-1.99309 -5.13778,-1.99309 -6.88014,-0.77908 -3.42052,2.98199 -3.89177,4.82868 -4.30859,9.33984 -0.21505,12.05497 -0.21505,12.05497 3.62109,17.53516 1.6875,1.125 1.6875,1.125 4.1875,1 3.99826,-1.39939 5.5,-2.54924 5.5,-6.875 z"
     fill="#f3e7d2"
     id="path4"
     sodipodi:nodetypes="ccccccccccccc" />
  <path
     d="m 203.66477,377.50462 c 0.0774,-4.04396 0.0244,-5.32991 -1.58203,-7.5335 -2.07605,-1.44807 -3.21716,-0.93256 -5.73047,-0.904 l -2.0625,-0.0234 c -2.5481,0.524 -3.42082,1.29841 -4.9375,3.39844 -0.36328,2.15625 -0.36328,2.15625 -0.3125,4.5 l 0.0117,2.34375 c 0.30078,2.15625 0.30078,2.15625 2.30078,5.15625 2.3125,0.36328 2.3125,0.36328 5,0.3125 l 2.6875,-0.0117 c 4.6043,-0.59887 4.60723,-3.20505 4.625,-7.23828 z"
     fill="#3c3633"
     id="path5"
     sodipodi:nodetypes="ccccccccccc" />
  <path
     d="m 197.37346,384.74935 -1.02119,-1.86973 c -1.64926,-4.02008 -1.64926,-7.85493 0,-11.875 l 1.14982,-1.95204 c -4.5101,-0.36569 -4.65992,0.0239 -6.79826,1.62001 -2.12821,1.84757 -1.72447,3.48153 -1.66406,6.26953 l 0.0117,2.34375 c 0.30078,2.15625 0.42064,2.8754 2.30078,5.15625 3.125,0.1875 3.14619,0.49473 6.02119,0.30723 z"
     fill="#020501"
     id="path8"
     sodipodi:nodetypes="ccccccccc" />
  <path
     d="m 5.3223,385.43459 c -0.95347,-9.00502 -0.9235,-8.95796 0.03,-15.99247 -2.66656,0.2359 -3.95505,0.94007 -5,2 -0.12487,1.80927 -0.34051,3.62396 -0.3523,5.4375 l 0.12184,2.99609 c 0.23046,2.56641 0.0207,3.0009 2.56008,4.20683 z"
     fill="#020501"
     id="path9"
     sodipodi:nodetypes="ccccccc" />
  <path
     id="path10"
     d="m 56.31863,26.518566 c -4.17812,-4.16754 -5.46434,-9.61959 -6.85967,-15.19831 -2.65374,-3.8047897 -5.59385,-3.1812297 -7.97411,-10.2429597 -0.97227,-1.41421004 -2.32062,-1.45841004 -3.69064,0 0.4333,4.65874 0.25653,6.11714 1.95895,8.54917 3.06048,2.0403297 4.78947,2.7531397 8.53661,2.7531397 l 1.0625,4.0625 c 0.66558,3.69096 3.02113,7.5841 5.20358,10.58497 z m 55.13911,18.79854 c -0.42106,-13.33673 1.03287,-22.3688 -5.44532,-30.09375 -3.481,-3.1329 -6.32262,-4.24084 -11.03515,-4.53125 -8.0762,0.47508 -12.98591,5.23765 -18.75,10.4375 -4.34593,3.89754 -8.09835,6.09473 -14.0625,6.5625 -2.39503,-0.21289 -4.51964,-0.24786 -8.84658,-2.64842 1.57769,1.86543 0.71436,4.03249 6.97939,4.86717 10.0471,0.14405 16.30737,-5.55131 23.76953,-11.66406 3.63723,-2.87248 6.69345,-4.57256 11.28516,-5.24219 3.94665,0.57556 6.05809,1.74576 9.09766,4.3125 5.77223,8.79578 2.98974,19.21357 2.96875,28.03907 z"
     style="fill:#5a423a;fill-opacity:1"
     sodipodi:nodetypes="ccccccccccccccccccccc" />
</svg>
